<?xml version="1.0" encoding="UTF-8"?>
<svg width="322px" height="36px" viewBox="0 0 322 36" version="1.1" xmlns="http://www.w3.org/2000/svg" xmlns:xlink="http://www.w3.org/1999/xlink">
    <!-- Generator: Sketch 53 (72520) - https://sketchapp.com -->
    <title>Group 35 Copy 2</title>
    <desc>Created with Sketch.</desc>
    <g id="Brand-Doodling" stroke="none" stroke-width="1" fill="none" fill-rule="evenodd">
        <g transform="translate(-567.000000, -4407.000000)" id="Group-35-Copy-2">
            <g transform="translate(567.000000, 4394.000000)">
                <g id="Group-28-Copy" transform="translate(0.000000, 17.094408)" fill="#4A4A4A" fill-rule="nonzero">
                    <g id="Group-7-Copy-4">
                        <g id="Group-7-Copy-3">
                            <path d="M0,0.735901868 L6.98625,0.735901868 L6.98625,25.2568775 L22.123125,25.2568775 L22.123125,30.9554141 L0,30.9554141 L0,0.735901868 Z M53.3743757,24.4798043 L39.3587507,24.4798043 L36.6850007,30.9554141 L29.5262507,30.9554141 L42.9812507,0.735901868 L49.8812507,0.735901868 L63.3793757,30.9554141 L56.0481257,30.9554141 L53.3743757,24.4798043 Z M51.1750007,19.1698043 L46.3881257,7.60004821 L41.6012507,19.1698043 L51.1750007,19.1698043 Z M92.9487514,30.9554141 L87.1268764,22.5371214 L80.7012514,22.5371214 L80.7012514,30.9554141 L73.7150014,30.9554141 L73.7150014,0.735901868 L86.7818764,0.735901868 C89.4556397,0.735901868 91.777179,1.18199497 93.7465639,2.07419455 C95.7159487,2.96639413 97.2324961,4.23272293 98.2962514,5.87321894 C99.3600067,7.51371495 99.8918764,9.45637845 99.8918764,11.7012677 C99.8918764,13.946157 99.3528193,15.8816254 98.2746889,17.5077311 C97.1965585,19.1338368 95.6656363,20.3785805 93.6818764,21.2419994 L100.452501,30.9554141 L92.9487514,30.9554141 Z M92.8193764,11.7012677 C92.8193764,10.0032105 92.2731318,8.7009064 91.1806264,7.7943165 C90.0881209,6.8877266 88.4925119,6.43443845 86.3937514,6.43443845 L80.7012514,6.43443845 L80.7012514,16.968097 L86.3937514,16.968097 C88.4925119,16.968097 90.0881209,16.5076138 91.1806264,15.5866336 C92.2731318,14.6656534 92.8193764,13.3705444 92.8193764,11.7012677 Z M132.480002,24.4798043 L118.464377,24.4798043 L115.790627,30.9554141 L108.631877,30.9554141 L122.086877,0.735901868 L128.986877,0.735901868 L142.485002,30.9554141 L135.153752,30.9554141 L132.480002,24.4798043 Z M130.280627,19.1698043 L125.493752,7.60004821 L120.706877,19.1698043 L130.280627,19.1698043 Z M166.836253,31.4734628 C163.759987,31.4734628 160.978453,30.8043232 158.491565,29.4660238 C156.004678,28.1277244 154.049697,26.2714015 152.626565,23.8969994 C151.203433,21.5225973 150.491878,18.8388437 150.491878,15.845658 C150.491878,12.8524723 151.203433,10.1687186 152.626565,7.7943165 C154.049697,5.41991439 156.004678,3.56359149 158.491565,2.22529211 C160.978453,0.886992738 163.774362,0.217853088 166.879378,0.217853088 C169.495641,0.217853088 171.860305,0.678336288 173.97344,1.5993165 C176.086576,2.52029672 177.861871,3.84418592 179.299378,5.57102382 L174.814378,9.71541406 C172.773118,7.35540226 170.243143,6.17541406 167.224378,6.17541406 C165.355618,6.17541406 163.688135,6.58553191 162.221878,7.40577992 C160.75562,8.22602792 159.612819,9.37004087 158.79344,10.8378531 C157.974061,12.3056653 157.564378,13.9749169 157.564378,15.845658 C157.564378,17.716399 157.974061,19.3856506 158.79344,20.8534628 C159.612819,22.3212751 160.75562,23.465288 162.221878,24.285536 C163.688135,25.105784 165.355618,25.5159019 167.224378,25.5159019 C170.243143,25.5159019 172.773118,24.3215236 174.814378,21.9327311 L179.299378,26.0771214 C177.861871,27.8327399 176.079388,29.1710192 173.951878,30.0919994 C171.824367,31.0129796 169.452516,31.4734628 166.836253,31.4734628 Z M240.723754,31.4734628 C238.337492,31.4734628 236.030328,31.1496856 233.802192,30.5021214 C231.574055,29.8545572 229.784386,29.0127363 228.433129,27.9766336 L230.805004,22.7098043 C232.098761,23.6595652 233.63687,24.4222405 235.419379,24.9978531 C237.201888,25.5734657 238.98437,25.8612677 240.766879,25.8612677 C242.750639,25.8612677 244.216874,25.5662707 245.165629,24.9762677 C246.114384,24.3862648 246.588754,23.6020043 246.588754,22.6234628 C246.588754,21.9039471 246.308444,21.3067579 245.747817,20.8318775 C245.187189,20.3569971 244.468446,19.9756594 243.591567,19.6878531 C242.714687,19.4000468 241.528762,19.0834646 240.033754,18.738097 C237.733743,18.191265 235.850636,17.6444412 234.384379,17.0976092 C232.918122,16.5507772 231.660322,15.6729811 230.610942,14.4641946 C229.561561,13.255408 229.036879,11.6437168 229.036879,9.6290726 C229.036879,7.87345407 229.511249,6.28334802 230.460004,4.85870675 C231.408759,3.43406548 232.839057,2.30444263 234.750942,1.46980431 C236.662826,0.635165988 238.99874,0.217853088 241.758754,0.217853088 C243.685014,0.217853088 245.56812,0.448094688 247.408129,0.908584795 C249.248138,1.3690749 250.858122,2.0310195 252.238129,2.89443845 L250.081879,8.20443845 C247.293115,6.62150371 244.504393,5.83004821 241.715629,5.83004821 C239.760619,5.83004821 238.315946,6.14663041 237.381567,6.77980431 C236.447187,7.4129782 235.980004,8.247604 235.980004,9.28370675 C235.980004,10.3198095 236.519061,11.0896798 237.597192,11.5933409 C238.675322,12.0970019 240.321243,12.5934604 242.535004,13.0827311 C244.835016,13.6295631 246.718122,14.1763869 248.184379,14.7232189 C249.650636,15.2700509 250.908436,16.1334569 251.957817,17.3134628 C253.007197,18.4934687 253.531879,20.0907698 253.531879,22.1054141 C253.531879,23.832252 253.050321,25.4079679 252.087192,26.8326092 C251.124062,28.2572505 249.679389,29.3868733 247.753129,30.2215116 C245.826869,31.0561499 243.483768,31.4734628 240.723754,31.4734628 Z M271.32813,6.43443845 L261.66813,6.43443845 L261.66813,0.735901868 L287.97438,0.735901868 L287.97438,6.43443845 L278.31438,6.43443845 L278.31438,30.9554141 L271.32813,30.9554141 L271.32813,6.43443845 Z M308.61688,31.4734628 C306.230619,31.4734628 303.923454,31.1496856 301.695318,30.5021214 C299.467182,29.8545572 297.677512,29.0127363 296.326255,27.9766336 L298.69813,22.7098043 C299.991887,23.6595652 301.529997,24.4222405 303.312505,24.9978531 C305.095014,25.5734657 306.877497,25.8612677 308.660005,25.8612677 C310.643765,25.8612677 312.110001,25.5662707 313.058755,24.9762677 C314.00751,24.3862648 314.48188,23.6020043 314.48188,22.6234628 C314.48188,21.9039471 314.201571,21.3067579 313.640943,20.8318775 C313.080315,20.3569971 312.361572,19.9756594 311.484693,19.6878531 C310.607814,19.4000468 309.421888,19.0834646 307.92688,18.738097 C305.626869,18.191265 303.743763,17.6444412 302.277505,17.0976092 C300.811248,16.5507772 299.553448,15.6729811 298.504068,14.4641946 C297.454688,13.255408 296.930005,11.6437168 296.930005,9.6290726 C296.930005,7.87345407 297.404376,6.28334802 298.35313,4.85870675 C299.301885,3.43406548 300.732183,2.30444263 302.644068,1.46980431 C304.555953,0.635165988 306.891867,0.217853088 309.65188,0.217853088 C311.57814,0.217853088 313.461246,0.448094688 315.301255,0.908584795 C317.141265,1.3690749 318.751249,2.0310195 320.131255,2.89443845 L317.975005,8.20443845 C315.186242,6.62150371 312.397519,5.83004821 309.608755,5.83004821 C307.653746,5.83004821 306.209073,6.14663041 305.274693,6.77980431 C304.340313,7.4129782 303.87313,8.247604 303.87313,9.28370675 C303.87313,10.3198095 304.412188,11.0896798 305.490318,11.5933409 C306.568448,12.0970019 308.214369,12.5934604 310.42813,13.0827311 C312.728142,13.6295631 314.611248,14.1763869 316.077505,14.7232189 C317.543763,15.2700509 318.801563,16.1334569 319.850943,17.3134628 C320.900323,18.4934687 321.425005,20.0907698 321.425005,22.1054141 C321.425005,23.832252 320.943448,25.4079679 319.980318,26.8326092 C319.017188,28.2572505 317.572515,29.3868733 315.646255,30.2215116 C313.719996,31.0561499 311.376894,31.4734628 308.61688,31.4734628 Z" id="LARACASTS"></path>
                        </g>
                    </g>
                </g>
                <g id="Group-34" transform="translate(205.405592, 30.500000) rotate(-45.000000) translate(-205.405592, -30.500000) translate(180.905592, 12.000000)">
                    <g id="Group-96-Copy-4" transform="translate(15.000000, 0.000000)" fill="#4A4A4A" fill-rule="nonzero">
                        <path d="M0.652771855,4.48401956 L7.61588486,4.48401956 C9.0501766,4.48401956 10.2128998,5.64674274 10.2128998,7.08103448 L10.2128998,7.08103448 C10.2128998,8.51532622 9.0501766,9.67804941 7.61588486,9.67804941 L0.652771855,9.67804941 C-0.781519883,9.67804941 -1.94424307,8.51532622 -1.94424307,7.08103448 L-1.94424307,7.08103448 C-1.94424307,5.64674274 -0.781519883,4.48401956 0.652771855,4.48401956 Z" id="Rectangle-Copy-73" transform="translate(4.134328, 7.081034) rotate(-270.000000) translate(-4.134328, -7.081034) "></path>
                        <path d="M-3.32366493,23.3455138 L11.5923216,23.3455138 C13.0266134,23.3455138 14.1893366,24.508237 14.1893366,25.9425287 L14.1893366,25.9425287 C14.1893366,27.3768205 13.0266134,28.5395437 11.5923216,28.5395437 L-3.32366493,28.5395437 C-4.75795666,28.5395437 -5.92067985,27.3768205 -5.92067985,25.9425287 L-5.92067985,25.9425287 C-5.92067985,24.508237 -4.75795666,23.3455138 -3.32366493,23.3455138 Z" id="Rectangle-Copy-74" transform="translate(4.134328, 25.942529) rotate(-270.000000) translate(-4.134328, -25.942529) "></path>
                        <path d="M2.10283241,8.32513323 L31.3798551,8.54792872 C32.8395401,8.5590368 34.0200893,9.73966424 34.0311007,11.19935 L34.0311007,11.19935 C34.0418988,12.6307735 32.8902544,13.7999251 31.4588309,13.8107232 C31.4457393,13.810822 31.4326472,13.8108215 31.4195556,13.8107219 L2.14253293,13.5879264 C0.682847917,13.5768183 -0.497701276,12.3961909 -0.508712595,10.9365051 L-0.508712595,10.9365051 C-0.519510713,9.50508166 0.632133688,8.33593005 2.06355717,8.32513193 C2.07664873,8.32503317 2.08974085,8.3250336 2.10283241,8.32513323 Z" id="Rectangle-Copy-77" transform="translate(16.761194, 11.067928) rotate(-330.000000) translate(-16.761194, -11.067928) "></path>
                        <path d="M2.14253293,23.4329862 L31.4195556,23.2101907 C32.8509784,23.1992977 34.0202064,24.3508646 34.0310994,25.7822874 C34.031199,25.7953789 34.0311994,25.808471 34.0311007,25.8215626 L34.0311007,25.8215626 C34.0200893,27.2812484 32.8395401,28.4618758 31.3798551,28.4729839 L2.10283241,28.6957794 C0.671409647,28.7066724 -0.497818295,27.5551055 -0.508711293,26.1236827 C-0.508810919,26.1105911 -0.508811352,26.097499 -0.508712595,26.0844075 L-0.508712595,26.0844075 C-0.497701276,24.6247217 0.682847917,23.4440943 2.14253293,23.4329862 Z" id="Rectangle-Copy-78" transform="translate(16.761194, 25.952985) rotate(-30.000000) translate(-16.761194, -25.952985) "></path>
                    </g>
                    <path d="M11.8965885,15.8875205 L26.3720682,15.8875205 C27.8316779,15.8875205 29.0149254,17.070768 29.0149254,18.5303777 L29.0149254,18.5303777 C29.0149254,19.9899874 27.8316779,21.1732348 26.3720682,21.1732348 L11.8965885,21.1732348 C10.4369788,21.1732348 9.25373134,19.9899874 9.25373134,18.5303777 L9.25373134,18.5303777 C9.25373134,17.070768 10.4369788,15.8875205 11.8965885,15.8875205 Z" id="Rectangle-Copy-75" fill="#53B5FF" transform="translate(19.134328, 18.530378) rotate(-180.000000) translate(-19.134328, -18.530378) "></path>
                    <path d="M2.64285714,15.8875205 L4.81982942,15.8875205 C6.27943912,15.8875205 7.46268657,17.070768 7.46268657,18.5303777 L7.46268657,18.5303777 C7.46268657,19.9899874 6.27943912,21.1732348 4.81982942,21.1732348 L2.64285714,21.1732348 C1.18324745,21.1732348 1.03651537e-13,19.9899874 1.03472786e-13,18.5303777 L1.03472786e-13,18.5303777 C1.03294035e-13,17.070768 1.18324745,15.8875205 2.64285714,15.8875205 Z" id="Rectangle-Copy-76" fill="#53B5FF" transform="translate(3.731343, 18.530378) rotate(-180.000000) translate(-3.731343, -18.530378) "></path>
                </g>
            </g>
        </g>
    </g>
</svg>