<svg xmlns="http://www.w3.org/2000/svg" width="20" height="14" viewBox="0 0 20 14">
    <g fill="none" fill-rule="evenodd">
        <g fill="#78909C">
            <g>
                <g>
                    <g>
                        <path d="M17.086 16.495l9.905 5.443 9.963-5.243c.03.177.046.36.046.545v7.52c0 1.79-1.45 3.24-3.24 3.24H20.24C18.45 28 17 26.55 17 24.76v-7.52c0-.257.03-.506.086-.745zM33.76 14c1.011 0 1.914.463 2.508 1.19l-9.26 4.872-9.145-5.024C18.455 14.4 19.301 14 20.24 14h13.52z" transform="translate(-535 -3494) translate(147 3222) translate(360 40) translate(11 218)"/>
                    </g>
                </g>
            </g>
        </g>
    </g>
</svg>
